<?xml version="1.0" encoding="UTF-8"?>
<svg width="24px" height="24px" viewBox="176 25 1750 1750" xmlns="http://www.w3.org/2000/svg">
    <g stroke="none" fill="none" fill-rule="evenodd">
        <path d="M 381.594 296.386 C 410.645 295.433 443.296 296.178 472.583 296.181 L 638.694 296.16 L 1150.39 296.157 L 1526.08 296.167 L 1645.64 296.085 C 1666.93 296.062 1688.83 295.751 1710.03 296.347 C 1724.43 297.103 1735.71 299.471 1747.4 308.203 C 1773.76 327.91 1780.11 366.464 1759.7 392.741 C 1747.15 408.905 1733.23 414.469 1713.23 416.945 C 1684.03 417.895 1650.82 417.13 1621.37 417.13 L 1448.97 417.128 L 927.915 417.121 L 561.582 417.146 L 443.244 417.156 C 425.352 417.156 396.674 418.632 379.436 416.771 C 304.588 408.689 301.485 305.408 381.594 296.386 z M 379.571 1384.39 C 385.115 1383.46 412.558 1383.87 419.226 1383.89 L 499.173 1383.97 L 805.998 1383.97 L 1412.93 1383.97 L 1612.71 1383.96 C 1645.03 1383.95 1677.61 1383.74 1709.94 1383.92 C 1722.23 1383.99 1735.87 1388.38 1745.99 1395.54 C 1759.41 1404.93 1768.46 1419.35 1771.1 1435.52 C 1773.53 1451.04 1769.61 1466.89 1760.2 1479.47 C 1748.68 1494.98 1733.92 1502.03 1715.26 1504.62 C 1692.9 1505.98 1660.84 1504.97 1637.92 1504.94 L 1499.55 1504.92 L 1060.41 1504.95 L 608.88 1504.95 L 461.022 1504.99 C 440.093 1505 419.154 1505.07 398.225 1504.99 C 378.436 1504.91 361.724 1504.83 345.676 1491.88 C 332.984 1481.82 324.858 1467.09 323.118 1450.99 C 319.354 1415.22 344.356 1387.44 379.571 1384.39 z M 986.57 659.423 C 995.068 658.388 1014.88 658.787 1023.74 658.8 L 1086.39 658.87 L 1303.27 658.845 L 1578.18 658.832 L 1664.95 658.84 C 1693.15 658.846 1726.71 654.386 1749.85 672.678 C 1762.02 682.183 1769.76 696.271 1771.24 711.644 C 1775.12 750.081 1749.6 775.831 1712.4 779.515 C 1661.76 781.02 1604.9 779.811 1553.88 779.818 L 1252.78 779.83 L 1074.15 779.813 C 1047.95 779.809 1021.73 779.871 995.533 779.687 C 978.09 779.565 961.597 777.932 948.143 765.47 C 905.851 726.299 928.093 663.606 986.57 659.423 z M 988.986 1021.45 L 1480.2 1021.37 L 1635.14 1021.36 C 1662.42 1021.36 1691.27 1020.69 1718.45 1022.38 C 1730.83 1023.15 1740.77 1027.55 1750.37 1035.58 C 1762.68 1046.06 1770.31 1061.02 1771.56 1077.14 C 1773.71 1104.41 1756.39 1131.69 1729.6 1139.19 C 1723.04 1141.02 1717.69 1141.38 1710.88 1141.91 C 1657.59 1143.22 1600.56 1142.23 1547.06 1142.22 L 1248.88 1142.24 L 1073.8 1142.24 C 1043.61 1142.24 1013.33 1142.71 983.174 1141.56 C 953.351 1140.43 928.906 1115.93 926.55 1086.45 C 925.417 1070.33 930.722 1054.42 941.301 1042.2 C 954.569 1027.15 969.769 1022.74 988.986 1021.45 z M 506.131 659.031 C 507.65 660.272 529.49 697.154 531.868 701.068 C 524.89 706.311 510.914 713.754 502.923 718.497 C 490.974 725.631 479.442 733.44 468.383 741.888 C 418.453 779.552 399.216 815.231 390.794 875.324 C 432.561 875.377 486.096 874.25 508.446 916.446 C 532.074 961.055 513.539 1013.58 470.046 1036.1 C 429.228 1050.58 369.621 1039.18 346.669 999.451 C 322.32 957.31 317.643 901.231 327.353 853.848 C 331.944 831.446 342.399 811.985 354.249 792.826 C 393.45 728.802 444.712 697.435 506.131 659.031 z M 767.337 659.978 C 772.342 661.749 788.25 693.832 794.27 701.346 C 722.576 742.192 660.121 784.83 653.102 875.137 C 680.36 875.815 701.361 873.552 728.078 882.343 C 797.957 905.338 797.13 1005.89 732.273 1035.64 C 712.255 1043.59 680.435 1042.84 659.894 1037.19 C 636.774 1030.84 618.359 1016.89 606.778 995.574 C 583.149 952.09 578.489 892.235 591.77 844.56 C 597.447 824.18 605.657 810.372 616.206 793.2 C 644.784 746.677 684.816 712.21 730.426 683.174 C 742.582 675.435 754.444 667.064 767.337 659.978 z" fill="#FFFFFF"></path>
    </g>
</svg>
