<?xml version="1.0" encoding="UTF-8"?>
<svg width="24px" height="24px" viewBox="133 -13 1739 1739" xmlns="http://www.w3.org/2000/svg">
    <g stroke="none" fill="none" fill-rule="evenodd">
        <path d="M 742.94 1298.42 C 809.544 1297.7 877.257 1298.29 943.95 1298.31 L 1312.1 1298.3 L 1543.3 1298.29 C 1583.2 1298.29 1623.13 1298.09 1663.02 1298.5 C 1679.07 1298.67 1691.49 1301.54 1704.36 1311.32 C 1716.89 1321.03 1725.05 1335.32 1727.04 1351.05 C 1729.17 1367.39 1724.59 1383.89 1714.34 1396.78 C 1702.48 1411.47 1687.01 1417 1668.87 1419.02 C 1598.6 1419.92 1526.58 1419.18 1456.18 1419.18 L 1055.12 1419.19 L 844.558 1419.2 L 777.994 1419.21 C 750.68 1419.19 725.152 1422.95 702.763 1404.3 C 690.628 1394.23 683.106 1379.66 681.92 1363.93 C 680.573 1347.85 685.749 1331.91 696.282 1319.7 C 709.256 1304.58 723.701 1299.85 742.94 1298.42 z M 749.429 332.46 L 1364.75 332.423 L 1568.33 332.378 L 1630.83 332.375 C 1645.19 332.378 1658.47 332.346 1672.9 333.315 C 1723.42 336.707 1745.39 398.751 1710.28 434.452 C 1695.5 449.489 1682.39 452.61 1661.53 453.132 L 1031.44 453.112 L 835.065 453.134 L 775.197 453.141 C 762.649 453.15 750.514 453.238 737.934 452.579 C 686.999 449.907 663.787 387.885 698.229 351.076 C 713.372 334.892 728.436 333.219 749.429 332.46 z M 733.986 816.261 C 749.227 814.965 769.146 815.524 784.756 815.546 L 866.641 815.615 L 1129.69 815.602 L 1488.8 815.595 L 1605.25 815.601 C 1626.87 815.603 1648.17 815.572 1670.01 815.925 C 1695.47 815.762 1720.81 836.711 1725.93 861.642 C 1733.41 898.058 1712.2 927.712 1676.81 935.147 C 1665.66 936.647 1645.63 936.15 1633.77 936.145 L 1563.02 936.085 L 1317.4 936.091 L 932.104 936.105 L 806.031 936.111 C 783.79 936.109 761.121 936.329 738.883 935.762 C 727.845 935.48 716.862 931.561 707.699 925.354 C 694.57 916.379 685.578 902.524 682.728 886.878 C 676.015 851.044 699.2 822.67 733.986 816.261 z M 358.803 1258.41 C 403.013 1258.04 439.178 1293.53 439.646 1337.74 C 440.113 1381.95 404.706 1418.19 360.499 1418.76 C 316.152 1419.32 279.769 1383.78 279.3 1339.43 C 278.831 1295.09 314.454 1258.78 358.803 1258.41 z M 347.536 293.423 C 391.473 286.781 432.42 317.168 438.793 361.143 C 445.166 405.119 414.529 445.88 370.515 451.984 C 326.88 458.035 286.547 427.719 280.229 384.122 C 273.911 340.526 303.979 300.008 347.536 293.423 z M 347.172 776.497 C 390.945 769.694 431.93 799.709 438.654 843.494 C 445.379 887.28 415.29 928.211 371.493 934.857 C 327.807 941.486 287.002 911.491 280.294 867.816 C 273.586 824.142 303.509 783.283 347.172 776.497 z" fill="#FFFFFF"></path>
    </g>
</svg>
