<?xml version="1.0" encoding="UTF-8"?>
<svg width="24px" height="24px" viewBox="-123 -111 2297 2297" xmlns="http://www.w3.org/2000/svg">
    <g stroke="none" fill="none" fill-rule="evenodd">
        <path d="M 246.414 1124.42 L 247.196 1124.39 C 282.826 1123.37 323.488 1124.3 359.551 1124.3 L 577.983 1124.31 L 1242.11 1124.32 L 1627.35 1124.29 L 1747.69 1124.29 C 1789.52 1124.29 1833.48 1117.53 1866.15 1148.47 C 1883.25 1164.45 1893.09 1186.7 1893.42 1210.09 C 1893.91 1233.41 1885.01 1255.95 1868.72 1272.65 C 1851.66 1290.03 1829.99 1297.96 1805.98 1298.33 L 733.059 1298.3 L 398.019 1298.35 L 291.066 1298.35 C 272.886 1298.35 253.852 1298.89 235.737 1297.91 C 193 1295.58 159.179 1259.52 156.316 1217.26 C 154.856 1194.09 162.751 1171.3 178.232 1154 C 197.759 1132.09 218.251 1126.12 246.414 1124.42 z M 234.316 777.332 C 249.087 775.668 284.999 776.616 301.118 776.633 L 426.433 776.684 L 849.622 776.682 L 1491.29 776.674 L 1699.95 776.658 C 1733.22 776.639 1778.09 775.335 1810.49 777.021 C 1827.93 777.852 1844.73 783.825 1858.78 794.187 C 1877.07 807.983 1889.18 828.442 1892.47 851.117 C 1895.97 873.724 1890.23 896.787 1876.55 915.122 C 1861.53 935.216 1841.91 946.491 1817.25 949.942 C 1784.25 951.517 1744.71 950.545 1711.39 950.543 L 1525 950.516 L 953.17 950.512 L 474.869 950.517 L 319.452 950.561 C 297.507 950.567 275.469 950.517 253.53 950.556 C 229.437 950.598 211.282 948.549 191.445 933.703 C 172.433 919.65 159.965 898.459 156.916 875.015 C 153.889 851.823 160.288 828.387 174.681 809.952 C 189.425 790.94 210.744 780.412 234.316 777.332 z M 1018.3 81.3706 C 1020.5 81.2739 1022.7 81.2119 1024.9 81.1847 C 1047.5 80.9564 1070.15 90.5762 1086.17 106.444 C 1097.96 118.359 1106.08 133.412 1109.56 149.81 C 1113.25 167.386 1111.69 214.772 1111.67 235.506 L 1111.76 393.594 C 1140.23 366.162 1167.43 336.974 1195.86 309.49 C 1219.37 286.765 1237.29 261.097 1271.2 254.796 C 1293.02 250.67 1315.58 255.569 1333.73 268.371 C 1353.26 281.967 1366.62 304.527 1370.89 327.76 C 1375.14 348.297 1369.06 380.582 1354.8 397.07 C 1329.32 426.512 1295.64 456.447 1267.85 484.095 L 1145.52 604.505 C 1126.27 623.645 1107.15 642.958 1087.76 661.966 C 1070.18 679.198 1057.94 686.04 1033.6 690.164 L 1029.63 690.255 C 984.78 691.042 967.574 668.015 937.965 638.37 L 893.696 594.239 L 737.822 441.296 C 707.441 411.839 677.893 389.949 677.519 344.308 C 677.37 319.271 687.22 295.209 704.882 277.462 C 720.509 261.874 741.727 253.192 763.799 253.355 C 806.894 253.528 832.72 288.317 860.866 316.466 L 938.015 393.7 L 938.035 236.591 C 938.004 217.146 936.811 168.142 939.679 152.066 C 942.259 137.74 948.398 124.293 957.534 112.961 C 972.736 93.7945 994.411 84.1162 1018.3 81.3706 z M 1016.54 1385.31 C 1041.51 1381.21 1069.01 1394.83 1086.33 1411.94 C 1107.15 1432.5 1127.66 1453.35 1148.47 1473.91 L 1269.49 1592.94 L 1322.94 1644.91 C 1333.39 1655.12 1348.15 1668.71 1356.19 1680.26 C 1366.27 1694.93 1371.82 1712.23 1372.15 1730.03 C 1372.69 1754.98 1363.13 1779.09 1345.64 1796.9 C 1329.71 1813.27 1310.21 1821.8 1287.35 1822.03 C 1272.28 1822.24 1257.45 1818.23 1244.53 1810.46 C 1228.56 1800.74 1202.16 1772.31 1187.97 1758.1 L 1111.71 1681.92 L 1111.71 1839.87 C 1111.73 1858.34 1112.87 1905.36 1110.3 1921.65 C 1108.25 1934.79 1103.14 1947.27 1095.41 1958.09 C 1080.18 1979.72 1059.56 1989.44 1034.2 1993.94 C 1031.48 1994.03 1028.77 1994.09 1026.05 1994.11 C 1002.68 1994.48 980.133 1985.47 963.45 1969.11 C 943.945 1949.64 937.44 1924.84 937.972 1898.13 C 938.345 1879.42 938.049 1860.25 938.052 1841.49 L 938.022 1681.73 C 910.058 1708.85 882.825 1737.5 854.951 1764.79 C 839.487 1778.54 824.628 1798.65 807.065 1809.44 C 751.216 1843.73 686.643 1804.69 678.287 1744.45 C 675.066 1720.1 681.664 1695.47 696.628 1675.99 C 703.422 1667 723.15 1648.27 732.204 1639.58 C 749.268 1623.34 766.151 1606.91 782.851 1590.29 L 905.023 1470.05 L 946.376 1428.71 C 969.891 1405.27 982.261 1390.28 1016.54 1385.31 z" fill="#FFFFFF"></path>
    </g>
</svg>
