<?xml version="1.0" encoding="UTF-8"?>
<svg width="24px" height="24px" viewBox="84 92 1143 1143" xmlns="http://www.w3.org/2000/svg">
    <g stroke="none" fill="none" fill-rule="evenodd">
        <path d="M 293.896 716.313 C 338.733 714.584 393.269 716.003 438.884 716.004 L 715.015 716.009 L 915.242 716.002 L 978.122 715.963 C 996.286 715.948 1025.38 712.618 1038.96 725.361 C 1045.69 731.801 1049.54 740.682 1049.63 749.995 C 1050.01 778.442 1024.23 787.429 1000.87 785.066 C 996.236 784.598 989.004 785.069 984.15 785.07 L 918.08 785.067 L 690.732 785.132 C 688.302 863.424 692.751 946.408 690.158 1024.87 C 731.333 986.772 768.215 942.465 809.627 904.601 C 813.46 901.095 821.49 899.153 826.544 898.953 C 836.175 898.578 845.546 902.128 852.511 908.79 C 859.594 915.632 862.094 923.971 862.303 933.691 C 862.634 949.14 850.944 959.38 840.904 969.629 L 735.156 1077.79 C 716.426 1097 697.95 1117.08 678.292 1135.35 C 670.257 1143.96 649.253 1147.38 639.508 1139.22 C 614.781 1118.52 588.637 1090.74 565.898 1068.08 L 496.066 998.586 C 482.979 985.573 469.731 972.696 457.047 959.293 C 449.342 951.152 445.641 946.012 445.241 934.544 C 444.934 924.981 448.539 915.706 455.224 908.86 C 461.529 902.462 470.134 898.857 479.116 898.851 C 496.4 898.687 504.617 910.217 515.886 921.21 C 522.22 927.389 528.423 933.735 534.718 939.957 L 621.981 1026.54 L 621.994 785.187 C 547.538 784.218 471.358 785.055 396.784 785.059 L 332.243 785.061 C 317.238 785.061 289.262 787.296 277.289 779.005 C 269.731 773.691 264.557 765.628 262.876 756.544 C 259.09 735.526 273.487 719.32 293.896 716.313 z M 652.963 188.238 C 653.657 188.186 654.352 188.15 655.047 188.13 C 665.569 187.765 674.244 192.163 681.541 199.384 C 695.029 212.73 708.259 226.506 721.484 240.104 L 788.396 308.61 L 830.526 351.574 C 842.661 364.014 862.179 379.79 862.474 398.043 C 862.594 407.397 858.958 416.408 852.379 423.059 C 845.942 429.691 837.061 433.383 827.819 433.269 C 810.451 433.009 801.991 420.668 790.695 409.406 C 783.501 402.232 776.468 394.815 769.368 387.539 L 690.212 306.766 C 691.839 323.565 690.302 356.97 690.574 375.385 C 691.376 429.848 689.398 485.908 690.813 540.271 C 766.446 541.753 846.585 540.409 922.552 540.41 L 982.742 540.385 C 994.024 540.383 1011.2 539.942 1021.91 541.447 C 1028.41 542.382 1034.44 545.376 1039.1 549.989 C 1058.42 568.75 1050.05 602.831 1022.86 608.375 C 1012.31 610.525 991.826 609.376 980.348 609.376 L 908.23 609.373 L 653.5 609.334 L 404.787 609.308 L 333.783 609.4 C 315.738 609.455 286.729 612.928 273.289 600.15 C 266.466 593.761 262.552 584.859 262.457 575.512 C 262.348 560.656 273.14 543.861 288.692 541.549 C 301.782 539.603 317.886 540.363 331.312 540.375 L 396.661 540.385 L 621.934 540.523 L 622.103 305.332 C 615.554 312.442 605.721 321.319 598.627 328.286 L 557.222 369.563 L 522.257 404.381 C 514.959 411.663 507.853 419.435 499.994 425.88 C 480.414 441.935 450.218 429.993 445.851 405.348 C 444.473 398.786 445.489 387.123 449.731 381.692 C 461.109 367.125 475.845 353.54 488.973 340.508 L 552.686 277.131 L 607.478 222.464 C 621.001 209.052 633.905 191.755 652.963 188.238 z" fill="#FFFFFF"></path>
    </g>
</svg>
