<?xml version="1.0" encoding="UTF-8"?>
<svg width="24px" height="24px" viewBox="63 76 1888 1888" xmlns="http://www.w3.org/2000/svg">
    <g stroke="none" fill="none" fill-rule="evenodd">
        <path d="M 318.798 235.434 C 320.317 235.384 321.836 235.343 323.355 235.311 C 360.334 234.51 400.282 235.272 437.443 235.277 L 663.297 235.262 L 777.422 235.243 C 791.056 235.241 823.364 234.447 835.498 235.976 C 849.33 237.846 862.209 244.072 872.266 253.751 C 884.446 265.813 891.426 282.159 891.714 299.298 C 891.911 316.782 885.028 333.603 872.632 345.935 C 864.612 354.084 854.457 359.807 843.332 362.446 C 826.258 366.338 786.752 365.053 767.719 365.045 L 653.105 365.076 C 652.336 430.967 653.063 498.526 653.064 564.541 L 653.078 956.022 L 1360.21 955.968 C 1361.01 879.736 1360.27 801.958 1360.28 725.588 L 1360.18 365.091 C 1310.44 364.258 1260.37 365.428 1210.49 365.046 C 1176.24 364.784 1151.11 364.591 1131.21 331.952 C 1116.84 308.4 1121.77 274.963 1140.74 255.507 C 1153.69 242.229 1170.91 235.065 1189.41 235.342 C 1227.73 235.225 1266.15 235.26 1304.48 235.262 L 1529.74 235.292 L 1641.93 235.235 C 1656.98 235.226 1688.88 234.361 1702.51 236.284 C 1715.67 238.14 1727.9 244.164 1737.4 253.474 C 1749.74 265.281 1756.78 281.582 1756.92 298.665 C 1757.31 332.223 1732.69 361.305 1698.75 364.096 C 1677.18 365.87 1654.41 365.05 1632.68 365.048 L 1518.92 364.985 C 1518.33 414.244 1518.87 464.68 1518.87 514.012 L 1518.87 805.05 L 1518.88 1676.85 L 1637.63 1676.82 C 1653.55 1676.8 1688.96 1675.97 1702.69 1678.12 C 1711.1 1679.47 1719.16 1682.52 1726.35 1687.09 C 1741.1 1696.3 1751.57 1710.99 1755.47 1727.93 C 1759.29 1744.75 1756.13 1762.41 1746.71 1776.85 C 1734.96 1794.88 1719.96 1801.78 1699.82 1806.16 L 1699 1806.18 C 1660.89 1807.16 1619.3 1806.37 1581 1806.37 L 1355.88 1806.36 L 1240.9 1806.35 C 1219.31 1806.35 1195.32 1807.34 1174.08 1804.78 C 1162.76 1803.41 1151.6 1796.64 1143.38 1788.76 C 1130.59 1776.57 1123.2 1759.78 1122.85 1742.11 C 1122.51 1720.14 1135.84 1697.11 1154.76 1686.23 C 1177.95 1672.9 1215.1 1676.78 1241.59 1676.8 L 1360.17 1676.8 C 1361.13 1610.79 1360.27 1542.5 1360.27 1476.34 L 1360.27 1085.87 C 1270.55 1084.81 1178.87 1085.75 1089.02 1085.74 L 653.057 1085.84 L 653.131 1676.75 C 714.06 1678.08 777.258 1674.8 838.22 1678.15 C 848.143 1678.69 863.162 1687.26 870.643 1693.94 C 883.355 1705.39 890.945 1721.46 891.716 1738.56 C 892.687 1755.82 886.628 1772.75 874.92 1785.48 C 862.461 1798.94 845.711 1806.2 827.512 1806.31 C 789.791 1806.55 751.942 1806.36 714.225 1806.34 L 499.466 1806.35 L 375.147 1806.37 C 355.515 1806.37 333.722 1806.78 314.224 1805.86 C 302.355 1805.3 285.954 1796.59 277.239 1788.2 C 265.019 1776.32 258.027 1760.07 257.807 1743.03 C 257.553 1725.38 263.59 1708.91 275.998 1696.44 C 291.121 1681.25 309.066 1676.81 329.944 1676.84 C 346.608 1676.86 363.218 1676.8 379.82 1676.8 L 494.7 1676.88 L 494.753 364.98 L 376.35 365.058 C 359.107 365.064 323.974 366.039 308.975 363.165 C 299.059 361.18 289.758 356.862 281.844 350.567 C 236.492 314.608 257.082 242.107 318.798 235.434 z" fill="#FFFFFF"></path>
    </g>
</svg>
