<?xml version="1.0" encoding="UTF-8"?>
<svg width="24px" height="24px" viewBox="38 75 905 905" xmlns="http://www.w3.org/2000/svg">
    <g stroke="none" fill="none" fill-rule="evenodd">
        <path d="M 380.003 151.159 C 402.581 149.201 418.63 160.332 423.991 182.571 C 422.424 189.292 421.273 191.821 418.503 198.068 C 362.011 204.938 402.908 168.051 400.088 159.985 C 378.904 150.249 372.018 174.985 367.439 190.05 C 340.982 277.09 328.76 370.178 313.023 459.477 C 297.334 544.758 279.36 629.602 259.117 713.918 C 247.764 762.559 224.482 896.442 165.928 904.718 C 164.643 904.794 163.358 904.856 162.072 904.905 C 150.3 905.336 142.02 902.202 133.03 894.117 C 125.208 887.082 116.783 871.185 126.1 861.964 C 132.513 855.617 141.987 856.902 150.324 857.182 C 165.835 879.355 146.949 883.348 146.479 895.12 C 150.171 899.195 160.601 897.874 165.919 897.745 C 196.777 881.18 210.355 799.431 217.296 767.312 C 227.089 721.994 233.822 674.815 241.666 629.07 C 255.879 549.391 271.999 470.064 290.014 391.157 C 297.009 359.461 304.547 327.887 312.627 296.45 C 322.692 256.188 340.116 169.99 380.003 151.159 z M 666.512 375.432 C 669.178 375.333 670.968 374.925 673.135 376.328 C 678.983 390.298 612.073 591.301 626.502 605.291 C 631.204 606.657 636.86 605.973 641.834 605.705 C 656.4 590.556 653.756 576.252 663.307 559.505 C 663.805 558.631 665.522 559.16 666.449 559.279 L 668.061 561.407 C 668.325 565.712 665.753 576.731 664.476 581.22 C 657.681 605.098 650.954 608.146 631.473 619.267 C 615.888 609.603 609.196 612.535 601.924 592.056 C 595.392 598.642 589.607 604.076 581.823 609.139 C 577.978 610.706 559.818 618.238 557.048 618.136 C 549.372 617.854 531.568 609.17 526.604 602.917 C 514.899 588.172 512.046 573.132 513.248 555.179 C 515.153 526.746 529.962 499.841 551.28 481.466 C 563.853 470.628 579.478 461.583 596.601 463.187 C 612.701 464.696 616.496 471.032 626.055 482.346 C 630.339 460.931 642.019 419.587 648.382 398.219 C 637.688 388.934 628.025 387.872 614.466 384.586 C 620.158 383.246 628.015 382.888 634.245 381.637 C 645.106 379.455 655.487 375.883 666.512 375.432 z M 589.301 470.186 C 597.059 469.829 599.689 470.264 606.811 473.64 C 616.219 477.526 622.875 495.873 620.297 505.099 C 611.445 536.777 608.617 594.747 570.478 605.85 C 566.238 606.06 551.631 607.041 548.215 605.274 C 530.743 596.11 537.992 567.059 540.549 551.584 C 545.413 522.144 558.571 481.849 589.301 470.186 z M 742.441 463.337 C 769.892 461.236 769.746 467.889 786.065 484.845 C 789.503 483.649 796.101 474.506 801.045 470.864 C 814.41 461.02 825.476 462.301 840.646 464.326 C 848.798 471.144 855.965 476.944 854.653 488.892 C 852.535 508.181 819.872 512.21 823.038 488.815 C 824.06 481.268 835.578 475.192 841.516 471.509 C 817.498 468.877 801.777 470.302 793.555 495.781 C 787.514 514.504 763.314 590.743 776.866 603.942 C 783.86 607.522 796.563 606.075 804.797 605.723 C 819.566 596.254 825.621 587.456 832.466 571.431 C 834.337 567.051 836.458 561.928 839.902 558.672 L 841.646 558.839 L 842.978 560.873 C 843.802 579.213 827.116 601.001 811.638 610.204 C 808.872 611.849 798.879 614.455 794.967 615.989 C 792.847 617.549 792.488 617.886 789.941 618.467 C 772.273 615.499 761.601 606.653 751.407 592.474 C 738.537 614.444 730.128 608.837 717.48 619.835 C 707.617 614.169 693.741 612.234 687.105 601.556 C 677.942 586.81 695.395 577.195 705.743 570.707 C 711.062 575.53 713.016 577.664 717.478 583.3 C 714.797 598.331 714.135 592.161 706.75 603.835 L 707.144 605.379 C 711.729 607.116 725.91 605.785 731.382 605.327 C 736.133 601.11 739.799 596.375 742.734 590.736 C 751.867 573.187 772.177 502.171 765.909 483.269 C 764.334 478.519 761.4 474.003 756.75 471.815 C 751.445 469.319 743.978 469.851 738.605 471.825 C 719.418 478.872 712.382 498.702 704.76 515.521 C 700.266 518.844 697.615 518.998 694.448 514.004 C 694.176 509.593 697.001 506.938 699.106 503.131 C 709.134 484.998 720.938 468.186 742.441 463.337 z" fill="#FFFFFF"></path>
    </g>
</svg>
