<?xml version="1.0" encoding="UTF-8"?>
<svg width="24px" height="24px" viewBox="247 137 1585 1585" xmlns="http://www.w3.org/2000/svg">
    <g stroke="none" fill="none" fill-rule="evenodd">
        <path d="M 553.996 1003.4 C 554.473 1003.34 554.95 1003.27 555.426 1003.21 C 650.32 996.904 732.751 1063.54 744.337 1157.43 C 754.813 1242.32 713.914 1289.59 666.38 1352.15 C 644.2 1381.34 623.392 1410.52 601.02 1438.85 L 645.347 1438.76 C 674.797 1438.73 699.893 1437.52 723.681 1458.78 C 736.341 1470.52 746.58 1492.41 746.39 1509.82 C 745.853 1559.09 708.721 1585.16 662.523 1584.88 C 605.477 1584.67 548.391 1584.89 491.345 1584.88 C 453.713 1584.88 430.944 1587.92 402.569 1560.56 C 384.971 1540.22 378.757 1515.9 386.33 1490.02 C 391.281 1473.11 421.732 1435.25 433.608 1419.41 L 546.586 1268.79 C 556.092 1256.03 565.676 1243.32 575.337 1230.67 C 582.178 1221.69 589.301 1212.82 595.088 1203.11 C 603.613 1188.81 603.623 1167.7 590.077 1156.37 C 581.904 1149.5 571.221 1146.39 560.639 1147.79 C 553.35 1148.71 546.497 1151.76 540.947 1156.58 C 518.335 1176.34 537.593 1208.93 513.039 1241.21 C 500.982 1256.91 483.154 1267.14 463.516 1269.64 C 447.323 1271.74 423.703 1265.06 411.149 1254.87 C 382.412 1231.53 380.77 1202.02 384.428 1167.93 C 388.528 1129.74 399.9 1098.23 424.596 1068.31 C 450.117 1037.39 485.208 1015.85 524.33 1007.09 C 533.214 1005.19 544.8 1004.29 553.996 1003.4 z M 894.673 1220.43 C 941.367 1218.56 998.019 1220.15 1045.45 1220.15 L 1335.58 1220.13 L 1526.25 1220.12 C 1558.96 1220.12 1593.22 1219.5 1625.88 1220.99 C 1638.56 1221.57 1652.47 1227.23 1662.74 1234.81 C 1678.53 1246.28 1689.1 1263.58 1692.09 1282.87 C 1696.92 1315.85 1677.52 1349.45 1646 1360.65 C 1637.43 1363.69 1630.82 1364.69 1621.77 1365.93 C 1567.41 1366.79 1510.94 1366.04 1456.44 1366.05 L 1138.65 1366.06 L 974.705 1366.06 C 946.014 1366.06 908.312 1367.98 880.655 1364.39 C 826.572 1357.38 800.099 1287.93 837.36 1246.45 C 854.613 1227.24 869.255 1222.6 894.673 1220.43 z M 902.461 856.439 C 954.165 855.054 1011.22 856.232 1063.24 856.236 L 1368.73 856.231 L 1535.09 856.234 C 1565.46 856.235 1597.82 855.308 1627.96 857.677 C 1643.32 858.885 1656.98 865.064 1668.6 875.343 C 1683.01 888.35 1691.7 906.525 1692.78 925.91 C 1694.47 957.318 1672.91 987.989 1643.2 997.679 C 1632.03 1001.32 1622.39 1001.59 1610.81 1002.14 L 1117.88 1002.16 L 968.64 1002.18 C 940.67 1002.19 912.534 1003.11 884.764 1000.82 C 825.995 995.979 798.68 922.748 839.35 880.147 C 858.066 860.541 876.602 857.589 902.461 856.439 z M 900.902 492.493 L 1395.88 492.462 L 1546.9 492.436 C 1568.05 492.418 1610.72 491.334 1630.18 493.836 C 1644.9 495.862 1658.66 502.34 1669.61 512.402 C 1698.83 539.523 1700.85 586.21 1672.81 614.732 C 1654.38 633.478 1637.61 637.432 1611.95 638.343 L 1114.19 638.353 L 966.494 638.354 C 939.628 638.359 910.415 639.758 884.177 636.996 C 825.364 630.803 798.789 558.303 840.046 515.479 C 858.122 496.717 876.075 493.323 900.902 492.493 z M 591.022 275.437 C 593.835 275.232 596.651 275.06 599.469 274.92 C 618.153 274.035 636.884 281.338 650.467 293.889 C 667.55 309.674 673.795 330.328 674.068 353.104 C 674.449 384.891 674.182 416.998 674.153 448.837 L 674.196 627.677 L 674.223 730.092 C 674.227 751.146 675.16 771.812 672.641 792.909 C 665.587 851.993 593.403 876.525 550.774 835.781 C 531.498 817.357 528.682 795.356 528.255 769.984 L 528.19 465.285 C 510.428 473.801 487.646 486.814 469.092 490.669 C 450.689 494.332 431.585 490.503 416.014 480.031 C 399.747 469.299 388.404 452.549 384.475 433.461 C 380.849 414.358 385.026 394.599 396.073 378.598 C 400.647 371.896 409.617 362.842 416.751 358.947 C 466.72 331.665 518.634 307.103 569.648 281.738 C 575.873 278.643 584.254 276.745 591.022 275.437 z" fill="#FFFFFF"></path>
    </g>
</svg>
