<?xml version="1.0" encoding="UTF-8"?>
<svg width="24px" height="24px" viewBox="-142 -133 2312 2312" xmlns="http://www.w3.org/2000/svg">
    <g stroke="none" fill="none" fill-rule="evenodd">
        <path d="M 415.959 374.584 C 419.668 374.165 422.098 373.545 425.65 374.665 C 428.16 381.32 431.704 402.806 433.553 411.417 C 439.85 440.749 445.306 470.532 451.937 499.802 C 447.174 500.998 441.581 501.836 436.717 502.51 C 379.678 510.527 320.189 531.138 284.336 578.795 C 255.713 616.842 252.901 655.858 253.336 701.311 C 294.789 701.297 337.53 700.753 378.883 701.602 C 380.342 807.337 378.949 916.433 378.95 1022.44 C 324.801 1023.23 268.801 1022.5 214.5 1022.51 L 51.759 1022.43 C 50.6494 965.326 51.7957 905.627 51.6441 848.114 C 52.135 737.016 44.3687 620.888 103.557 521.505 C 172.839 405.175 291.506 381.135 415.959 374.584 z M 929.338 374.58 C 932.895 374.216 936.041 373.421 939.181 374.828 C 941.18 379.93 944.45 399.951 945.994 406.593 C 953.109 437.198 958.102 469.756 965.431 500.14 C 882.808 512.473 800.712 537.307 773.724 627.069 C 765.628 653.998 766.579 673.655 766.816 701.32 C 808.211 701.303 850.814 700.773 892.115 701.595 C 893.735 807.063 892.197 916.642 892.192 1022.44 C 837.418 1023.3 780.454 1022.5 725.5 1022.51 L 565.035 1022.43 L 564.953 846.398 C 564.944 722.22 557.581 585.24 644.474 482.834 C 698.475 419.192 777.964 390.99 858.38 379.981 C 883.196 376.584 904.602 376.156 929.338 374.58 z M 1648.43 1022.49 L 1971.14 1022.42 L 1971.21 1201.43 C 1971.22 1312.01 1977.93 1421.73 1920.87 1521.27 C 1881.88 1589.28 1820.54 1629.9 1746.25 1650.93 C 1714.06 1659.81 1681.09 1665.58 1647.8 1668.17 C 1631.02 1669.56 1614.55 1669.6 1597.67 1671.32 C 1593.93 1656.74 1590.79 1639.39 1587.72 1624.5 L 1571.11 1544.77 C 1654.16 1534.83 1738.19 1504.8 1763.25 1417.09 C 1770.53 1391.62 1770.62 1370.37 1769.58 1344.39 C 1728.73 1343.61 1685.09 1344.27 1644.04 1344.26 C 1644.03 1314.99 1642.44 1027.97 1645.01 1023.65 C 1645.75 1022.42 1647.14 1022.68 1648.43 1022.49 z M 1135.12 1022.5 C 1241.94 1021.34 1350.92 1022.47 1457.92 1022.47 L 1457.97 1201.52 C 1457.97 1308.67 1463.9 1417.33 1411.07 1514.73 C 1372.02 1586.72 1312.65 1626.79 1235.76 1650.05 C 1175.39 1667.39 1143.75 1666.69 1083.46 1671.22 C 1082.32 1659.64 1076.38 1633.06 1073.84 1620.91 C 1068.75 1596.64 1064.2 1568.89 1058.26 1545.08 C 1070.92 1542.25 1085.18 1541.07 1098.06 1538.47 C 1157.11 1526.55 1213.88 1498.47 1241.17 1441.93 C 1257.17 1408.77 1258.1 1380.4 1256.87 1344.39 C 1215.83 1343.6 1172 1344.27 1130.77 1344.26 L 1130.72 1140.75 C 1130.72 1128.25 1129.67 1027.06 1132.15 1023.03 L 1135.12 1022.5 z" fill="#FFFFFF"></path>
    </g>
</svg>
