<?xml version="1.0" encoding="UTF-8"?>
<svg width="24px" height="24px" viewBox="86 99 1870 1870" xmlns="http://www.w3.org/2000/svg">
    <g stroke="none" fill="none" fill-rule="evenodd">
        <path d="M 509.56 256.583 L 510.367 256.513 C 531.625 254.813 562.258 255.614 584.232 255.621 L 707.271 255.646 L 1099.73 255.648 L 1394.75 255.627 L 1480.79 255.603 C 1508.79 255.608 1537.68 255.247 1565.36 259.735 C 1615.89 268.115 1663.15 290.186 1702.02 323.548 C 1758.6 372.099 1793.53 441.175 1799.1 515.525 C 1800.9 541.862 1800.15 572.071 1800.14 598.808 L 1800.1 731.339 L 1800.11 1145.69 L 1800.13 1421.92 L 1800.14 1497.81 C 1800.15 1524.41 1800.63 1551.86 1796.32 1578.14 C 1787.88 1629.33 1765.4 1677.18 1731.38 1716.36 C 1681.67 1773.69 1610.84 1808.44 1535.08 1812.66 C 1509.05 1813.78 1479.16 1813.1 1452.81 1813.1 L 1307.95 1813.1 L 867.692 1813.09 L 622.784 1813.1 C 576.818 1813.1 519.365 1816.17 474.995 1808.8 C 346.731 1787.51 246.354 1670.79 244.342 1540.71 C 243.908 1512.7 243.923 1484.49 243.938 1456.29 L 243.945 1313.38 L 243.949 873.185 L 243.923 634.051 C 243.919 602.679 244.624 570.722 244.048 539.419 C 241.359 393.078 360.384 262.073 509.56 256.583 z M 510.361 386.373 C 514.381 385.717 522.772 385.616 527.089 385.583 L 1231 385.662 L 1435.78 385.609 C 1462.16 385.602 1488.71 385.835 1515.08 385.644 C 1558.09 385.332 1595.57 399.671 1626.42 430.309 C 1645.56 449.263 1659.16 473.086 1665.76 499.205 C 1672.73 526.51 1670.76 573.206 1670.75 602.73 L 1670.74 731.939 L 1535.5 731.916 L 373.562 731.87 C 372.326 683.952 374.085 635.084 373.397 587.036 C 373.044 562.445 371.988 529.162 376.846 505.636 C 381.746 482.817 391.787 461.416 406.205 443.063 C 432.871 409.734 468.203 391.073 510.361 386.373 z M 849.041 1337.2 L 1195.16 1337.21 L 1195.04 1683.65 L 848.948 1683.64 L 849.041 1337.2 z M 849.068 861.378 L 1195.16 861.392 L 1195.07 1207.81 L 848.948 1207.8 L 849.068 861.378 z M 373.439 861.386 L 719.239 861.382 L 719.137 1207.81 L 373.538 1207.72 C 372.751 1169.46 373.446 1128.4 373.44 1089.94 L 373.439 861.386 z M 1325.02 861.381 C 1439.03 861.3 1556.92 859.825 1670.62 861.589 C 1671.48 899.466 1670.7 940.494 1670.7 978.574 L 1670.74 1207.82 L 1324.89 1207.8 L 1325.02 861.381 z M 1324.99 1337.2 L 1670.61 1337.32 L 1670.66 1339.65 C 1671.21 1379.62 1670.88 1419.97 1670.74 1459.95 C 1670.49 1530.77 1679.49 1583.87 1625.84 1639.36 C 1625.22 1640 1624.6 1640.63 1623.97 1641.26 C 1574.86 1689.86 1521.42 1683.67 1458.69 1683.67 L 1324.89 1683.63 L 1324.99 1337.2 z M 373.437 1337.21 L 719.24 1337.21 L 719.115 1683.65 L 590.631 1683.68 C 561.099 1683.68 513.065 1685.65 486.26 1678.59 C 460.191 1671.62 436.448 1657.83 417.467 1638.65 C 398.45 1619.68 384.929 1595.92 378.342 1569.88 C 371.325 1542.3 373.437 1494.9 373.438 1464.76 L 373.437 1337.21 z" fill="#FFFFFF"></path>
    </g>
</svg>
