<?xml version="1.0" encoding="UTF-8"?>
<svg width="24px" height="24px" viewBox="83 113 1881 1881" xmlns="http://www.w3.org/2000/svg">
    <g stroke="none" fill="none" fill-rule="evenodd">
        <path d="M 321.782 413.362 C 336.764 411.702 374.743 412.925 391.629 412.944 L 533.186 412.959 L 692.688 412.944 C 718.676 412.932 746.235 412.191 772.086 413.516 C 786.83 415.13 800.873 419.533 813.034 428.045 C 842.32 448.541 852.483 476.577 850.978 511.417 C 850.316 526.721 850.998 544.275 851.004 559.595 L 851.033 701.399 L 851.009 862.073 C 851.001 887.912 851.362 914.184 850.555 940.017 C 849.2 983.407 816.83 1015.18 774.251 1021.91 C 740.693 1023.12 703.226 1022.34 669.45 1022.34 L 484.298 1022.34 L 375.851 1022.38 C 332.465 1022.39 291.649 1028.29 261.322 990.229 C 252.951 979.725 244.708 964.358 243.498 950.805 C 241.085 923.777 242.017 895.923 242.038 868.755 L 242.079 721.589 L 242.036 567.913 C 242.034 542.331 240.533 512.933 243.105 487.691 C 247.418 445.37 282.241 418.551 321.782 413.362 z M 375.746 543.446 L 599.662 543.43 C 637.196 543.413 684.177 542.072 720.561 543.836 L 720.349 889.25 L 719.677 891.192 C 715.346 892.581 667.832 891.84 660.275 891.839 L 503.719 891.874 L 418.253 891.921 C 405.907 891.925 384.4 892.504 372.736 891.424 C 371.418 781.546 373.78 671.324 372.414 561.414 C 372.351 556.326 372.035 549.01 373.434 544.314 L 375.746 543.446 z M 777.186 1262.24 C 780.205 1262 783.229 1261.85 786.256 1261.79 C 821.038 1261.21 851.722 1291.9 850.932 1326.6 C 850.407 1349.65 843.346 1361.98 827.342 1378.01 C 757.889 1447.55 688.326 1516.96 618.836 1586.45 L 555.814 1649.6 C 534.236 1671.22 514.746 1697.18 481.781 1696.82 C 460.942 1696.59 447.268 1689.83 432.487 1675.3 C 420.364 1663.38 408.484 1651.46 396.542 1639.51 L 311.396 1554.28 L 278.655 1521.72 C 259.008 1502.17 240.482 1487.01 240.163 1456.55 C 240.085 1439.29 246.798 1422.7 258.852 1410.35 C 271.123 1397.89 287.852 1390.83 305.339 1390.73 C 327.427 1390.75 342.393 1400.29 357.345 1415.6 C 368.266 1426.78 379.666 1437.89 390.732 1448.97 L 481.16 1539.27 C 502.729 1518.91 525.406 1495.22 546.654 1473.98 L 670.317 1350.35 L 716.205 1304.37 C 737.789 1282.69 746.442 1269.26 777.186 1262.24 z M 1089.29 1501.42 C 1127.71 1499.66 1177.52 1501.21 1217.07 1501.2 L 1468.98 1501.19 L 1652.83 1501.19 C 1677.27 1501.19 1701.72 1501.09 1726.17 1501.2 C 1746.95 1501.3 1764.34 1500.77 1781.81 1513.4 C 1795.82 1523.41 1805.19 1538.66 1807.8 1555.68 C 1813.85 1597.65 1787.53 1625.81 1747.41 1631.78 C 1699.31 1632.74 1648.17 1631.91 1599.87 1631.91 L 1316.46 1631.94 L 1161.49 1631.97 C 1143.37 1631.97 1125.09 1631.8 1106.99 1631.96 C 1085.65 1632.14 1067.8 1631.58 1050.23 1617.71 C 1036.44 1606.8 1027.64 1590.79 1025.81 1573.31 C 1024.01 1555.89 1029.23 1538.46 1040.31 1524.9 C 1053.66 1508.71 1069.18 1503.28 1089.29 1501.42 z M 1082.79 979.274 C 1091.05 978.184 1106.84 978.513 1115.53 978.526 L 1167.75 978.619 L 1346.89 978.601 L 1615.2 978.575 L 1700.38 978.572 C 1727.43 978.567 1759.03 974.587 1781.93 991.18 C 1795.77 1001.07 1805.05 1016.09 1807.7 1032.89 C 1813.63 1071.75 1789.87 1102.89 1751.23 1108.67 C 1739.63 1109.69 1723.83 1109.29 1712.01 1109.27 L 1649.03 1109.21 L 1448.24 1109.23 L 1208.07 1109.24 L 1128.96 1109.25 C 1115.95 1109.24 1098.47 1109.68 1085.79 1108.89 C 1075.38 1108.29 1065.29 1105.14 1056.39 1099.7 C 1041.5 1090.44 1030.92 1075.61 1027.01 1058.52 C 1023.13 1041.18 1026.45 1023.01 1036.22 1008.18 C 1047.79 990.638 1062.94 983.38 1082.79 979.274 z M 1079.78 457.255 C 1092.16 456.115 1108.19 456.506 1120.86 456.526 L 1183.5 456.56 L 1388.89 456.548 L 1629.45 456.529 L 1705.83 456.538 C 1730.98 456.545 1755.43 453.131 1777.64 466.091 C 1808.55 484.126 1817.98 527.43 1798.81 556.857 C 1789.1 571.942 1773.67 582.432 1756.07 585.916 C 1741.64 588.192 1693.37 586.991 1675.6 586.977 L 1512.7 586.988 L 1227.61 587.009 L 1134.91 587.006 C 1110.34 587.004 1078.47 590.622 1057.18 577.809 C 1042.16 568.758 1031.37 554.1 1027.18 537.074 C 1023.12 520.246 1025.97 502.492 1035.08 487.777 C 1045.62 470.53 1060.63 461.87 1079.78 457.255 z" fill="#FFFFFF"></path>
    </g>
</svg>
