<?xml version="1.0" encoding="UTF-8"?>
<svg width="24px" height="24px" viewBox="0 0 24 24" xmlns="http://www.w3.org/2000/svg">
    <g stroke="none" fill="none" fill-rule="evenodd">
        <path d="M7.142857,5.4 L16.857143,5.4 C19.068542,5.4 20.857143,7.188601 20.857143,9.4 L20.857143,14.6 C20.857143,16.811399 19.068542,18.6 16.857143,18.6 L7.142857,18.6 C4.931458,18.6 3.142857,16.811399 3.142857,14.6 L3.142857,9.4 C3.142857,7.188601 4.931458,5.4 7.142857,5.4 Z M7.142857,6.6 C5.594716,6.6 4.342857,7.851859 4.342857,9.4 L4.342857,14.6 C4.342857,16.148141 5.594716,17.4 7.142857,17.4 L16.857143,17.4 C18.405284,17.4 19.657143,16.148141 19.657143,14.6 L19.657143,9.4 C19.657143,7.851859 18.405284,6.6 16.857143,6.6 L7.142857,6.6 Z M10.8,9.35 C10.42,9.02 9.86,8.85 9.12,8.85 C8.38,8.85 7.78,9.06 7.35,9.46 C6.98,9.82 6.83,10.22 6.83,10.55 C6.83,11.05 7.06,11.46 7.5,11.78 C7.82,12.02 8.32,12.23 9.0,12.4 C9.56,12.54 9.88,12.65 10.02,12.73 C10.16,12.81 10.26,12.9 10.32,13.0 C10.38,13.1 10.41,13.2 10.41,13.3 C10.41,13.52 10.31,13.7 10.12,13.84 C9.92,13.99 9.62,14.07 9.22,14.07 C8.82,14.07 8.51,13.97 8.28,13.78 C8.06,13.58 7.92,13.3 7.84,12.93 L6.62,13.06 C6.7,13.74 6.96,14.26 7.4,14.62 C7.84,14.97 8.44,15.15 9.2,15.15 C9.96,15.15 10.56,14.94 11.0,14.54 C11.38,14.18 11.58,13.76 11.58,13.27 C11.58,12.77 11.36,12.36 10.92,12.04 C10.6,11.82 10.1,11.6 9.42,11.4 C8.78,11.22 8.42,11.07 8.24,10.92 C8.1,10.79 8.04,10.65 8.04,10.48 C8.04,10.31 8.11,10.17 8.26,10.06 C8.46,9.91 8.75,9.84 9.12,9.84 C9.48,9.84 9.74,9.92 9.92,10.06 C10.1,10.2 10.22,10.42 10.28,10.72 L11.48,10.66 C11.42,10.12 11.2,9.68 10.8,9.35 Z M12.828571,8.85 L14.828571,8.85 C16.570478,8.85 17.978571,10.258093 17.978571,12.0 C17.978571,13.741907 16.570478,15.15 14.828571,15.15 L12.828571,15.15 L12.828571,8.85 Z M14.128571,10.05 L14.128571,13.95 L14.828571,13.95 C15.905892,13.95 16.778571,13.077321 16.778571,12.0 C16.778571,10.922679 15.905892,10.05 14.828571,10.05 L14.128571,10.05 Z" fill="#FFFFFF" fill-rule="nonzero"></path>
    </g>
</svg>
